<?xml version="1.0" encoding="UTF-8"?>
<svg xmlns="http://www.w3.org/2000/svg" id="Layer_1" data-name="Layer 1" viewBox="0 0 542.11 225.43">
  <defs>
    <style>.cls-1{fill:none;}.cls-2{fill:#00abc8;}.cls-3{fill:#231f20;}</style>
  </defs>
  <title>Howmet_Aerospace_Horizontal</title>
  <rect class="cls-1" width="542.11" height="225.43"></rect>
  <path class="cls-2" d="M88.86,74.8v29.86h32.5V74.8h25.22a3.69,3.69,0,0,1,3.69,3.69V110h27.07V68.09a15.71,15.71,0,0,0-15.72-15.71H48.6A15.71,15.71,0,0,0,32.88,68.09V110H60V78.49a3.69,3.69,0,0,1,3.69-3.69Z"></path>
  <path class="cls-3" d="M121.36,150.63V122.46H88.86v28.17H63.64A3.69,3.69,0,0,1,60,146.94V117.4H32.88v39.94A15.72,15.72,0,0,0,48.6,173.06h113a15.72,15.72,0,0,0,15.72-15.72V117.4H150.27v29.54a3.69,3.69,0,0,1-3.69,3.69Z"></path>
  <path class="cls-3" d="M199.09,66.35h13.6v16.3h17.05V66.35h13.59v44.14H229.74V94H212.69v16.53h-13.6Z"></path>
  <polygon class="cls-3" points="396.85 66.35 390.55 92.31 390.42 92.31 384.12 66.35 364.77 66.35 364.77 110.49 378.37 110.49 378.37 85.52 385.41 110.49 395.55 110.49 402.6 85.53 402.6 110.49 416.19 110.49 416.19 66.35 396.85 66.35"></polygon>
  <path class="cls-3" d="M423.57,66.35h38V77.67H437.17v5.5h22.27v10.5H437.17v5.5h25.05v11.32H423.57Z"></path>
  <path class="cls-3" d="M481.82,77.67H468V66.35h41.19V77.67h-13.8v32.82h-13.6Z"></path>
  <polygon class="cls-3" points="346.09 66.35 340.69 93.03 335.3 66.35 322.39 66.35 317 93.03 311.61 66.35 298.25 66.35 308.33 110.48 324.69 110.48 328.85 88.77 333.01 110.48 349.36 110.48 359.44 66.35 346.09 66.35"></polygon>
  <path class="cls-3" d="M297.2,88.42a22.1,22.1,0,0,1-6.77,16.44q-6.92,6.74-17.49,6.73t-17.45-6.79a22,22,0,0,1-6.81-16.38A22.12,22.12,0,0,1,255.49,72a25.7,25.7,0,0,1,34.87,0A22.2,22.2,0,0,1,297.2,88.42Zm-14-.07a10.18,10.18,0,0,0-2.8-7.24,10.21,10.21,0,0,0-14.82.11,10.25,10.25,0,0,0-2.92,7.19,10.14,10.14,0,0,0,2.74,7.25,10,10,0,0,0,7.53,3,9.8,9.8,0,0,0,7.38-3.21A10.09,10.09,0,0,0,283.21,88.35Z"></path>
  <path class="cls-3" d="M234.39,157.34h-11l-2.2-6.6H209.24l-2.09,6.6H196.22l12.12-35.24h14.15Zm-19.06-27.29-4,12.34h7.67Z"></path>
  <path class="cls-3" d="M237.71,157.34V122.1h27.51v8.62H248.54v4.63h13.19V144H248.54v4.74h16.68v8.63Z"></path>
  <path class="cls-3" d="M280.86,157.34H269.75V122.1h16c9.81,0,15,4.51,15,11.55a10.39,10.39,0,0,1-6.88,10.15l8.74,13.54H290.27L284,146.62l-3.1.28ZM284.47,139c3.38-.34,4.73-1.64,4.73-4.52,0-2.59-1.52-3.89-5.52-3.89h-3.05V139Z"></path>
  <path class="cls-3" d="M362.43,147.19c0-1.69-2.48-2.2-6.6-3.39-5.18-1.46-11.72-3.94-11.72-11.1,0-6.88,4.79-11.39,14.43-11.39a31.1,31.1,0,0,1,14.21,3.1L371,133.49a30.92,30.92,0,0,0-12.4-3.22c-2.15,0-3.39.45-3.39,1.86,0,1.64,3.39,2.43,6.88,3.39,5.58,1.57,11.45,4,11.45,10.76,0,7.05-5.3,11.9-15.51,11.9-5.81,0-11.27-1.41-14.49-3.16l1.69-9.07a30.68,30.68,0,0,0,13,3.27C360.74,149.22,362.43,148.65,362.43,147.19Z"></path>
  <path class="cls-3" d="M392.81,147.86H390v9.48h-11.1V122.1h14.66c10,0,15.67,5.07,15.67,12.63C409.22,143.18,403.58,147.86,392.81,147.86Zm-.11-17.31h-3v9.19l2.81-.05c3.95-.06,5.76-1.64,5.76-4.74C398.23,132.08,396.31,130.55,392.7,130.55Z"></path>
  <path class="cls-3" d="M444.71,157.34h-11l-2.2-6.6H419.57l-2.09,6.6H406.54l12.13-35.24h14.15Zm-19-27.29-4,12.34h7.67Z"></path>
  <path class="cls-3" d="M473.26,132.92a17.67,17.67,0,0,0-8.46-2.37c-5.35,0-8.68,3.5-8.68,9.08s3,9.25,8.68,9.25a17.28,17.28,0,0,0,9-2.6l2.42,9.53c-2.71,1.41-7.78,2.37-11.95,2.37-11.79,0-19.28-6.14-19.28-18.32,0-11.45,7.38-18.61,19.73-18.61a30,30,0,0,1,11.9,2.48Z"></path>
  <path class="cls-3" d="M480,157.34V122.1H507.5v8.62H490.81v4.63H504V144h-13.2v4.74H507.5v8.63Z"></path>
  <path class="cls-3" d="M340.69,139.41a17.21,17.21,0,0,1-5.27,12.79,20.19,20.19,0,0,1-27.17,0,18,18,0,0,1,0-25.53,20,20,0,0,1,27.12,0A17.24,17.24,0,0,1,340.69,139.41Zm-10.88,0a8,8,0,0,0-2.18-5.64,7.59,7.59,0,0,0-5.81-2.43,7.49,7.49,0,0,0-5.71,2.52A8.25,8.25,0,0,0,316,145a7.74,7.74,0,0,0,5.86,2.36,7.63,7.63,0,0,0,5.74-2.49A7.87,7.87,0,0,0,329.81,139.36Z"></path>
</svg>